<?xml version="1.0" standalone="no"?>
<!DOCTYPE svg PUBLIC "-//W3C//DTD SVG 20010904//EN"
 "http://www.w3.org/TR/2001/REC-SVG-20010904/DTD/svg10.dtd">
<svg version="1.0" xmlns="http://www.w3.org/2000/svg"
 width="160.000000pt" height="160.000000pt" viewBox="0 0 160.000000 160.000000"
 preserveAspectRatio="xMidYMid meet">
<metadata>
Created by potrace 1.14, written by Peter Selinger 2001-2017
</metadata>
<g transform="translate(0.000000,160.000000) scale(0.100000,-0.100000)"
fill="#000000" stroke="none">
<path d="M596 1255 c-87 -24 -131 -88 -140 -202 -4 -50 3 -64 31 -58 12 2 37
-1 56 -6 26 -7 38 -18 53 -51 33 -74 107 -87 136 -23 20 44 36 25 41 -50 2
-30 2 -30 -47 -27 -33 3 -46 0 -42 -7 4 -6 14 -11 22 -11 8 0 14 -7 14 -15 0
-24 27 -17 60 15 17 17 36 30 43 30 7 0 8 -3 2 -8 -5 -4 -10 -18 -11 -32 -1
-23 0 -23 10 -6 6 10 22 35 35 55 12 20 17 30 10 24 -26 -26 -89 -10 -89 22 0
5 4 4 9 -4 5 -7 20 -15 35 -16 22 -3 26 1 26 21 0 15 6 24 15 24 8 0 15 -8 15
-17 1 -16 2 -16 12 1 8 15 7 22 -6 31 -9 7 -16 24 -16 39 0 20 -5 26 -22 26
-41 0 -67 -12 -74 -32 -7 -24 -40 -19 -38 5 2 23 -33 46 -77 51 -33 3 -79 -10
-79 -24 0 -3 -25 -1 -55 4 -58 11 -72 30 -31 40 14 3 31 18 38 32 7 15 17 26
22 25 5 -2 12 1 15 6 3 5 19 19 35 31 24 18 42 22 106 22 63 0 83 -4 111 -23
18 -12 36 -33 40 -47 5 -17 7 -19 8 -7 1 26 -27 88 -52 115 -46 49 -141 70
-221 47z m109 -345 c-20 -22 -55 -26 -73 -8 -19 19 -14 26 15 23 15 -1 37 1
48 5 28 11 31 4 10 -20z"/>
<path d="M421 973 c0 -25 1 -26 9 -8 12 27 12 35 0 35 -5 0 -10 -12 -9 -27z"/>
<path d="M456 951 c-4 -7 -5 -15 -2 -18 9 -9 19 4 14 18 -4 11 -6 11 -12 0z"/>
<path d="M465 850 c-3 -5 -1 -10 4 -10 6 0 11 5 11 10 0 6 -2 10 -4 10 -3 0
-8 -4 -11 -10z"/>
<path d="M616 771 c-18 -19 -18 -22 -3 -39 9 -10 32 -19 52 -20 44 -3 85 -18
85 -32 0 -11 -7 -13 -70 -10 -36 1 -52 8 -80 35 -43 40 -77 58 -96 51 -15 -6
-16 -47 -1 -46 4 0 14 -5 21 -13 8 -7 45 -33 84 -56 83 -50 121 -52 133 -9 4
15 18 42 32 60 13 18 28 42 31 54 6 20 2 22 -61 28 -38 3 -77 9 -88 12 -14 3
-27 -2 -39 -15z m84 -15 l55 -14 -57 1 c-41 0 -58 4 -58 14 0 7 1 13 3 13 1
-1 27 -7 57 -14z"/>
<path d="M388 688 c-21 -40 -29 -45 -104 -69 -68 -23 -91 -26 -146 -20 -36 4
-79 3 -97 -1 -28 -8 -31 -12 -31 -48 0 -21 4 -49 9 -62 13 -33 43 -143 46
-165 1 -10 7 -31 13 -47 7 -16 10 -31 8 -34 -3 -2 -8 7 -12 22 -7 28 -24 36
-24 11 0 -8 -4 -15 -10 -15 -13 0 -13 17 0 25 6 4 8 11 4 16 -3 5 -10 6 -16 3
-6 -4 -14 -1 -18 6 -4 7 -8 -60 -9 -149 l-2 -161 801 0 800 0 0 201 0 201
-145 -4 c-79 -1 -149 -8 -154 -13 -6 -6 -14 -55 -19 -109 -6 -63 -14 -102 -23
-108 -11 -7 -11 -11 -1 -15 14 -6 17 -53 2 -53 -5 0 -10 7 -10 15 0 8 -13 29
-29 47 -16 18 -47 67 -69 108 -22 41 -59 111 -82 155 -57 106 -78 135 -99 135
-10 0 -51 11 -91 25 -40 14 -80 25 -88 25 -8 0 -21 8 -29 18 -13 15 -14 13 -9
-20 3 -28 18 -51 59 -93 55 -57 89 -123 102 -202 6 -35 1 -29 -60 61 -37 54
-74 117 -81 140 -8 23 -21 50 -29 60 -15 20 -15 20 -30 0 -8 -11 -14 -14 -15
-6 0 19 -40 -4 -40 -23 0 -22 -6 -19 -51 30 -37 40 -180 155 -193 155 -2 0
-15 -19 -28 -42z m-291 -490 c-3 -7 -5 -2 -5 12 0 14 2 19 5 13 2 -7 2 -19 0
-25z m43 -100 c0 -4 -4 -8 -10 -8 -5 0 -10 7 -10 16 0 8 -4 12 -10 9 -6 -4 -7
1 -3 11 6 16 7 15 20 -2 7 -10 13 -21 13 -26z"/>
<path d="M1201 224 c0 -11 3 -14 6 -6 3 7 2 16 -1 19 -3 4 -6 -2 -5 -13z"/>
</g>
</svg>
